<mxfile host="app.diagrams.net" modified="2021-02-10T08:28:48.032Z" agent="5.0 (Windows NT 10.0; Win64; x64) AppleWebKit/537.36 (KHTML, like Gecko) Chrome/88.0.4324.146 Safari/537.36" etag="COu-PuLDjTtV8jobKtzr" version="14.3.0" type="github">
  <diagram id="K_9PlUZWuF6zLkCPPaP_" name="Page-1">
    <mxGraphModel dx="868" dy="482" grid="1" gridSize="10" guides="1" tooltips="1" connect="1" arrows="1" fold="1" page="1" pageScale="1" pageWidth="850" pageHeight="1100" math="0" shadow="0">
      <root>
        <mxCell id="0" />
        <mxCell id="1" parent="0" />
        <mxCell id="K-9-p6haBg-T3rZr707z-1" value="Parking Attendant" style="shape=umlActor;verticalLabelPosition=bottom;verticalAlign=top;html=1;" vertex="1" parent="1">
          <mxGeometry x="395" y="40" width="50" height="100" as="geometry" />
        </mxCell>
        <mxCell id="K-9-p6haBg-T3rZr707z-2" value="Check in Customers" style="ellipse;whiteSpace=wrap;html=1;" vertex="1" parent="1">
          <mxGeometry x="350" y="220" width="140" height="70" as="geometry" />
        </mxCell>
        <mxCell id="K-9-p6haBg-T3rZr707z-7" style="edgeStyle=orthogonalEdgeStyle;rounded=0;orthogonalLoop=1;jettySize=auto;html=1;exitX=0.5;exitY=0;exitDx=0;exitDy=0;entryX=0;entryY=1;entryDx=0;entryDy=0;" edge="1" parent="1" source="K-9-p6haBg-T3rZr707z-3" target="K-9-p6haBg-T3rZr707z-2">
          <mxGeometry relative="1" as="geometry" />
        </mxCell>
        <mxCell id="K-9-p6haBg-T3rZr707z-3" value="Select Event" style="ellipse;whiteSpace=wrap;html=1;" vertex="1" parent="1">
          <mxGeometry x="160" y="330" width="140" height="70" as="geometry" />
        </mxCell>
        <mxCell id="K-9-p6haBg-T3rZr707z-8" style="edgeStyle=orthogonalEdgeStyle;rounded=0;orthogonalLoop=1;jettySize=auto;html=1;exitX=0.5;exitY=0;exitDx=0;exitDy=0;" edge="1" parent="1" source="K-9-p6haBg-T3rZr707z-4">
          <mxGeometry relative="1" as="geometry">
            <mxPoint x="400" y="291" as="targetPoint" />
          </mxGeometry>
        </mxCell>
        <mxCell id="K-9-p6haBg-T3rZr707z-4" value="Select Lot" style="ellipse;whiteSpace=wrap;html=1;" vertex="1" parent="1">
          <mxGeometry x="270" y="410" width="140" height="70" as="geometry" />
        </mxCell>
        <mxCell id="K-9-p6haBg-T3rZr707z-10" style="edgeStyle=orthogonalEdgeStyle;rounded=0;orthogonalLoop=1;jettySize=auto;html=1;exitX=0.5;exitY=0;exitDx=0;exitDy=0;" edge="1" parent="1" source="K-9-p6haBg-T3rZr707z-5">
          <mxGeometry relative="1" as="geometry">
            <mxPoint x="440" y="290" as="targetPoint" />
          </mxGeometry>
        </mxCell>
        <mxCell id="K-9-p6haBg-T3rZr707z-5" value="Process authentication code" style="ellipse;whiteSpace=wrap;html=1;" vertex="1" parent="1">
          <mxGeometry x="430" y="410" width="140" height="70" as="geometry" />
        </mxCell>
        <mxCell id="K-9-p6haBg-T3rZr707z-9" style="edgeStyle=orthogonalEdgeStyle;rounded=0;orthogonalLoop=1;jettySize=auto;html=1;exitX=0.5;exitY=0;exitDx=0;exitDy=0;entryX=1;entryY=1;entryDx=0;entryDy=0;" edge="1" parent="1" source="K-9-p6haBg-T3rZr707z-6" target="K-9-p6haBg-T3rZr707z-2">
          <mxGeometry relative="1" as="geometry" />
        </mxCell>
        <mxCell id="K-9-p6haBg-T3rZr707z-6" value="View Customer Reservation Information" style="ellipse;whiteSpace=wrap;html=1;" vertex="1" parent="1">
          <mxGeometry x="550" y="330" width="140" height="70" as="geometry" />
        </mxCell>
        <mxCell id="K-9-p6haBg-T3rZr707z-11" value="Includes" style="text;html=1;align=center;verticalAlign=middle;resizable=0;points=[];autosize=1;" vertex="1" parent="1">
          <mxGeometry x="260" y="290" width="60" height="20" as="geometry" />
        </mxCell>
        <mxCell id="K-9-p6haBg-T3rZr707z-12" value="Includes" style="text;html=1;align=center;verticalAlign=middle;resizable=0;points=[];autosize=1;" vertex="1" parent="1">
          <mxGeometry x="520" y="290" width="60" height="20" as="geometry" />
        </mxCell>
        <mxCell id="K-9-p6haBg-T3rZr707z-13" value="Includes" style="text;html=1;align=center;verticalAlign=middle;resizable=0;points=[];autosize=1;" vertex="1" parent="1">
          <mxGeometry x="440" y="330" width="60" height="20" as="geometry" />
        </mxCell>
        <mxCell id="K-9-p6haBg-T3rZr707z-14" value="Includes" style="text;html=1;align=center;verticalAlign=middle;resizable=0;points=[];autosize=1;" vertex="1" parent="1">
          <mxGeometry x="340" y="330" width="60" height="20" as="geometry" />
        </mxCell>
        <mxCell id="K-9-p6haBg-T3rZr707z-15" value="" style="endArrow=none;html=1;" edge="1" parent="1">
          <mxGeometry width="50" height="50" relative="1" as="geometry">
            <mxPoint x="419.5" y="210" as="sourcePoint" />
            <mxPoint x="419.5" y="160" as="targetPoint" />
          </mxGeometry>
        </mxCell>
      </root>
    </mxGraphModel>
  </diagram>
</mxfile>
